<svg aria-hidden="true" style="position: absolute; width: 0; height: 0; overflow: hidden;" version="1.1"
     xmlns="http://www.w3.org/2000/svg" xmlns:xlink="http://www.w3.org/1999/xlink">
    <defs>
        <symbol id="icon-menu" viewBox="0 0 32 32">
            <path d="M29.333 24.007c0 0.733-0.595 1.327-1.327 1.327h-10.68c-0.733 0-1.327-0.594-1.327-1.327s0.594-1.327 1.327-1.327h10.68c0.733 0 1.327 0.593 1.327 1.327zM29.333 16c0 0.733-0.595 1.327-1.327 1.327h-24.013c-0.733 0-1.327-0.594-1.327-1.327s0.594-1.327 1.327-1.327h24.013c0.733 0 1.327 0.595 1.327 1.327zM28.007 9.32c0.733 0 1.327-0.594 1.327-1.327s-0.594-1.327-1.327-1.327h-16.013c-0.733 0-1.327 0.594-1.327 1.327s0.594 1.327 1.327 1.327h16.013z"></path>
        </symbol>
        <symbol id="icon-close" viewBox="0 0 24 24">
            <path stroke-linejoin="miter" stroke-linecap="round" stroke-miterlimit="4" stroke-width="2" d="M9 6l6 6 6-6M9 18l6-6 6 6"></path>
        </symbol>
    </defs>
    <symbol id="icon-weather" viewBox="0 0 32 32">
        <path d="M11.733 5.405c-0.147 0.197-0.315 0.515-0.385 0.72-0.077 0.235-0.038 0.443 0.108 0.572 0.092 0.080 0.158 0.108 0.278 0.117 0.27 0.018 0.482-0.158 0.508-0.427 0.012-0.122-0.043-0.307-0.172-0.562-0.080-0.158-0.258-0.448-0.288-0.467-0.007-0.003-0.028 0.017-0.050 0.047z"></path>
        <path d="M14.555 5.403c-0.11 0.122-0.338 0.555-0.398 0.755-0.043 0.148-0.037 0.288 0.017 0.4 0.088 0.177 0.253 0.27 0.458 0.255 0.137-0.010 0.227-0.055 0.317-0.157 0.167-0.19 0.153-0.402-0.052-0.822-0.085-0.173-0.27-0.468-0.295-0.468-0.007 0-0.028 0.017-0.047 0.037z"></path>
        <path d="M17.337 5.453c-0.145 0.193-0.325 0.558-0.37 0.745-0.050 0.213 0.013 0.42 0.162 0.525 0.102 0.072 0.162 0.090 0.288 0.092 0.137 0.002 0.248-0.047 0.343-0.152 0.178-0.193 0.158-0.435-0.070-0.88-0.098-0.188-0.237-0.402-0.268-0.412-0.010-0.003-0.048 0.033-0.085 0.082z"></path>
        <path d="M20.175 5.423c-0.193 0.255-0.392 0.688-0.405 0.89-0.013 0.208 0.072 0.363 0.248 0.452 0.248 0.125 0.528 0.025 0.645-0.23 0.073-0.158 0.037-0.365-0.122-0.685-0.11-0.223-0.277-0.483-0.31-0.483-0.007 0-0.033 0.025-0.057 0.057z"></path>
        <path d="M13.095 7.953c-0.142 0.202-0.263 0.438-0.337 0.66-0.080 0.242-0.040 0.43 0.118 0.57 0.102 0.088 0.197 0.122 0.332 0.113 0.137-0.010 0.222-0.048 0.312-0.142 0.17-0.177 0.172-0.398 0.005-0.763-0.102-0.225-0.302-0.542-0.342-0.542-0.008 0-0.048 0.047-0.088 0.103z"></path>
        <path d="M15.91 7.953c-0.177 0.248-0.353 0.648-0.372 0.838-0.025 0.275 0.192 0.51 0.467 0.508 0.22-0.003 0.397-0.14 0.452-0.355 0.040-0.153 0.007-0.302-0.14-0.603-0.128-0.265-0.275-0.492-0.318-0.492-0.008 0-0.047 0.047-0.088 0.103z"></path>
        <path d="M18.69 8.017c-0.113 0.173-0.228 0.405-0.292 0.585-0.052 0.148-0.052 0.328 0 0.437 0.113 0.232 0.398 0.327 0.632 0.21 0.057-0.027 0.122-0.075 0.147-0.103 0.163-0.193 0.148-0.428-0.053-0.837-0.090-0.182-0.272-0.458-0.302-0.458-0.013 0-0.072 0.075-0.132 0.167z"></path>
        <path d="M15.518 10.2c-1.39 0.097-2.723 0.552-3.868 1.322-1.807 1.215-3.102 3.11-3.772 5.52-0.080 0.292-0.085 0.38-0.023 0.473 0.048 0.073 0.16 0.135 0.242 0.135 0.095 0 0.158-0.042 0.362-0.243 0.613-0.607 1.255-0.877 2.033-0.853 0.408 0.013 0.722 0.093 1.103 0.285 0.493 0.248 0.977 0.717 1.265 1.223 0.135 0.237 0.235 0.315 0.377 0.293 0.122-0.017 0.167-0.057 0.293-0.265 0.33-0.537 0.702-0.915 1.153-1.177 0.302-0.177 0.71-0.322 0.933-0.333l0.083-0.005v4.203c0 2.485-0.007 4.235-0.015 4.283-0.087 0.453-0.443 0.83-0.902 0.95-0.163 0.043-0.44 0.038-0.608-0.010-0.262-0.073-0.498-0.235-0.653-0.445-0.1-0.137-0.128-0.19-0.185-0.347-0.038-0.108-0.042-0.15-0.052-0.51-0.010-0.357-0.015-0.398-0.048-0.46-0.11-0.212-0.423-0.202-0.522 0.017-0.027 0.058-0.032 0.112-0.032 0.36 0 0.447 0.043 0.693 0.173 0.973 0.18 0.392 0.53 0.73 0.927 0.898 0.263 0.112 0.39 0.137 0.7 0.137 0.348 0 0.53-0.040 0.817-0.183 0.49-0.245 0.82-0.67 0.962-1.238 0.027-0.103 0.028-0.452 0.033-4.375 0.005-3.602 0.008-4.262 0.028-4.262 0.060 0 0.318 0.058 0.46 0.103 0.69 0.22 1.277 0.715 1.7 1.433 0.128 0.22 0.232 0.285 0.388 0.245 0.097-0.023 0.152-0.082 0.282-0.298 0.272-0.453 0.65-0.845 1.063-1.102 0.908-0.563 2.040-0.527 2.915 0.098 0.087 0.062 0.268 0.218 0.403 0.347 0.26 0.252 0.29 0.27 0.422 0.25 0.128-0.020 0.243-0.152 0.243-0.28 0-0.032-0.030-0.17-0.068-0.307-0.427-1.567-1.142-2.943-2.103-4.057-0.217-0.25-0.687-0.717-0.928-0.918-1.272-1.065-2.73-1.69-4.335-1.857-0.295-0.032-0.968-0.045-1.247-0.025zM16.575 10.802c1.2 0.092 2.39 0.505 3.428 1.192 0.727 0.482 1.433 1.155 1.972 1.882 0.53 0.713 0.955 1.508 1.3 2.428 0.030 0.082 0.048 0.147 0.038 0.147-0.008 0-0.068-0.030-0.133-0.068-0.723-0.423-1.628-0.537-2.435-0.305-0.457 0.132-0.868 0.352-1.242 0.665-0.187 0.155-0.47 0.45-0.602 0.625l-0.1 0.133-0.078-0.105c-0.297-0.39-0.693-0.752-1.070-0.973-1.165-0.687-2.525-0.608-3.608 0.208-0.282 0.212-0.59 0.528-0.803 0.825l-0.033 0.047-0.1-0.13c-0.507-0.658-1.163-1.112-1.888-1.307-0.588-0.158-1.197-0.142-1.778 0.047-0.188 0.060-0.533 0.215-0.677 0.305-0.045 0.027-0.082 0.043-0.082 0.035 0-0.020 0.147-0.407 0.228-0.602 1.207-2.872 3.535-4.722 6.338-5.035 0.403-0.045 0.85-0.048 1.325-0.013z"></path>
    </symbol>
    <symbol id="icon-transport" viewBox="0 0 32 32">
        <path d="M14.015 23.218v1.081c0 0.318-0.13 0.607-0.339 0.816s-0.498 0.339-0.816 0.339h-1.088c-0.318 0-0.607-0.13-0.816-0.339s-0.339-0.498-0.339-0.816v-1.097c0-0.191 0.155-0.345 0.345-0.345 0.023 0 0.045 0.002 0.066 0.006 0.023 0.003 0.046 0.006 0.068 0.007 0.024 0.002 0.053 0.003 0.086 0.003h2.487c0.191 0 0.345 0.155 0.345 0.345zM13.324 24.299v-0.736h-2.016v0.736c0 0.127 0.052 0.243 0.136 0.327s0.2 0.137 0.327 0.137h1.088c0.127 0 0.243-0.052 0.327-0.137s0.137-0.2 0.137-0.327z"></path>
        <path d="M21.391 23.202v1.097c0 0.318-0.13 0.607-0.339 0.816s-0.498 0.339-0.816 0.339h-1.088c-0.318 0-0.607-0.13-0.816-0.339s-0.339-0.498-0.339-0.816v-1.081c0-0.191 0.155-0.345 0.345-0.345h2.487c0.033 0 0.062-0.001 0.086-0.003 0.027-0.002 0.055-0.005 0.084-0.009 0.188-0.028 0.364 0.103 0.391 0.291 0.002 0.017 0.004 0.033 0.004 0.050zM20.7 24.299v-0.736h-2.016v0.736c0 0.127 0.052 0.243 0.137 0.327s0.2 0.137 0.327 0.137h1.088c0.127 0 0.243-0.052 0.327-0.137s0.136-0.2 0.136-0.327z"></path>
        <path d="M11.183 6.537h9.643c0.511 0 0.975 0.209 1.312 0.545s0.545 0.801 0.545 1.312v13.313c0 0.511-0.209 0.975-0.545 1.312s-0.801 0.545-1.312 0.545h-9.643c-0.511 0-0.975-0.209-1.312-0.545s-0.545-0.801-0.545-1.312v-13.313c0-0.511 0.209-0.975 0.545-1.312s0.801-0.545 1.312-0.545zM20.826 7.228h-9.643c-0.32 0-0.612 0.131-0.823 0.343s-0.343 0.503-0.343 0.823v13.313c0 0.32 0.131 0.612 0.343 0.823s0.503 0.343 0.823 0.343h9.643c0.32 0 0.612-0.131 0.823-0.343s0.343-0.503 0.343-0.823v-13.313c0-0.32-0.131-0.612-0.343-0.823s-0.503-0.343-0.823-0.343z"></path>
        <path d="M9.672 9.56h12.665c0.191 0 0.345 0.155 0.345 0.345v8.204c0 0.191-0.155 0.345-0.345 0.345h-12.665c-0.191 0-0.345-0.155-0.345-0.345v-8.204c0-0.191 0.155-0.345 0.345-0.345zM21.992 10.251h-11.975v7.513h11.975v-7.513z"></path>
        <path d="M11.907 19.576h0.963c0.339 0 0.647 0.138 0.87 0.361s0.361 0.531 0.361 0.87c0 0.339-0.138 0.647-0.361 0.87s-0.531 0.361-0.87 0.361h-0.963c-0.339 0-0.647-0.138-0.87-0.361s-0.361-0.531-0.361-0.87 0.138-0.647 0.361-0.87c0.223-0.223 0.531-0.361 0.87-0.361zM12.87 20.267h-0.963c-0.148 0-0.283 0.061-0.381 0.159s-0.159 0.233-0.159 0.381c0 0.148 0.061 0.283 0.159 0.381s0.233 0.159 0.381 0.159h0.963c0.148 0 0.283-0.061 0.381-0.159s0.159-0.233 0.159-0.381c0-0.148-0.061-0.283-0.159-0.381s-0.233-0.159-0.381-0.159z"></path>
        <path d="M19.139 19.576h0.963c0.339 0 0.647 0.138 0.87 0.361s0.361 0.531 0.361 0.87c0 0.339-0.138 0.647-0.361 0.87s-0.531 0.361-0.87 0.361h-0.963c-0.339 0-0.647-0.138-0.87-0.361s-0.361-0.531-0.361-0.87 0.138-0.647 0.361-0.87c0.223-0.223 0.531-0.361 0.87-0.361zM20.102 20.267h-0.963c-0.148 0-0.283 0.061-0.381 0.159s-0.159 0.233-0.159 0.381c0 0.148 0.061 0.283 0.159 0.381s0.233 0.159 0.381 0.159h0.963c0.148 0 0.283-0.061 0.381-0.159s0.159-0.233 0.159-0.381c0-0.148-0.061-0.283-0.159-0.381s-0.233-0.159-0.381-0.159z"></path>
        <path d="M15.659 9.905c0-0.191 0.155-0.345 0.345-0.345s0.345 0.155 0.345 0.345v8.204c0 0.191-0.155 0.345-0.345 0.345s-0.345-0.155-0.345-0.345v-8.204z"></path>
        <path d="M8.808 9.344h0.288c0.254 0 0.484 0.104 0.651 0.27s0.27 0.397 0.27 0.651v2.051c0 0.254-0.104 0.484-0.27 0.651s-0.397 0.27-0.651 0.27h-0.288c-0.254 0-0.484-0.104-0.651-0.27s-0.27-0.397-0.27-0.651v-2.051c0-0.254 0.104-0.484 0.27-0.651s0.397-0.27 0.651-0.27zM9.096 10.035h-0.288c-0.063 0-0.12 0.026-0.162 0.068s-0.068 0.099-0.068 0.162v2.051c0 0.063 0.026 0.12 0.068 0.162s0.099 0.068 0.162 0.068h0.288c0.063 0 0.12-0.026 0.162-0.068s0.068-0.099 0.068-0.162v-2.051c0-0.063-0.026-0.12-0.068-0.162s-0.099-0.068-0.162-0.068z"></path>
        <path d="M22.913 9.344h0.288c0.254 0 0.484 0.104 0.651 0.27s0.27 0.397 0.27 0.651v2.051c0 0.254-0.104 0.484-0.27 0.651s-0.397 0.27-0.651 0.27h-0.288c-0.254 0-0.484-0.104-0.651-0.27s-0.27-0.397-0.27-0.651v-2.051c0-0.254 0.104-0.484 0.27-0.651s0.397-0.27 0.651-0.27zM23.201 10.035h-0.288c-0.063 0-0.121 0.026-0.162 0.068s-0.068 0.099-0.068 0.162v2.051c0 0.063 0.026 0.12 0.068 0.162s0.099 0.068 0.162 0.068h0.288c0.063 0 0.12-0.026 0.162-0.068s0.068-0.099 0.068-0.162v-2.051c0-0.063-0.026-0.12-0.068-0.162s-0.099-0.068-0.162-0.068z"></path>
    </symbol>
    <symbol id="icon-house" viewBox="0 0 32 32">
        <path d="M16.166 11.324l5.268 3.976c0.068 0.051 0.104 0.129 0.104 0.209h0.001v6.598c0 0.145-0.117 0.262-0.262 0.262h-10.544c-0.145 0-0.262-0.117-0.262-0.262v-6.598c0-0.091 0.046-0.171 0.116-0.218l5.26-3.969c0.097-0.073 0.228-0.069 0.319 0.003zM18.483 13.728l-2.478-1.87-5.010 3.781v6.206h10.020v-6.206l-2.532-1.91z"></path>
        <path d="M16.166 9.392l7.194 5.429c0.115 0.087 0.138 0.251 0.051 0.366-0.016 0.021-0.035 0.040-0.056 0.055l-1.208 0.911c-0.097 0.073-0.228 0.069-0.319-0.003l-5.824-4.395-5.828 4.398c-0.097 0.073-0.228 0.069-0.319-0.003l-1.208-0.912c-0.115-0.087-0.138-0.251-0.051-0.366 0.016-0.021 0.035-0.040 0.056-0.054l7.193-5.429c0.097-0.073 0.228-0.069 0.319 0.003zM19.446 12.523l-3.441-2.597-6.764 5.104 0.778 0.587 5.824-4.395c0.091-0.072 0.222-0.076 0.319-0.003l5.828 4.398 0.778-0.587-3.322-2.507z"></path>
        <path d="M12.042 16.769h2.98c0.145 0 0.262 0.117 0.262 0.262v2.98c0 0.145-0.117 0.262-0.262 0.262h-2.98c-0.145 0-0.262-0.117-0.262-0.262v-2.98c0-0.145 0.117-0.262 0.262-0.262zM14.76 17.293h-2.456v2.456h2.456v-2.456z"></path>
        <path d="M16.561 16.769h3.324c0.145 0 0.262 0.117 0.262 0.262v5.075c0 0.145-0.117 0.262-0.262 0.262h-3.324c-0.145 0-0.262-0.117-0.262-0.262v-5.075c0-0.145 0.117-0.262 0.262-0.262zM19.622 17.293h-2.8v4.551h2.8v-4.551z"></path>
        <path d="M19.195 10.855h1.506c0.145 0 0.262 0.117 0.262 0.262v2.025c0 0.145-0.117 0.262-0.262 0.262-0.064 0-0.123-0.023-0.169-0.062l-1.495-1.128c-0.068-0.051-0.104-0.13-0.104-0.209h-0v-0.889c0-0.145 0.117-0.262 0.262-0.262zM20.44 11.379h-0.982v0.497l0.982 0.741v-1.238z"></path>
        <path d="M22.297 21.844c0.145 0 0.262 0.117 0.262 0.262s-0.117 0.262-0.262 0.262h-12.586c-0.145 0-0.262-0.117-0.262-0.262s0.117-0.262 0.262-0.262h12.586z"></path>
    </symbol>
    <symbol id="icon-events" viewBox="0 0 32 32">
        <path d="M11.746 10.889h8.517c0.228 0 0.434 0.093 0.584 0.243s0.243 0.357 0.243 0.584v1.479c0 0.193-0.079 0.368-0.206 0.495s-0.302 0.206-0.496 0.206c-0.193 0-0.369-0.079-0.496-0.206s-0.206-0.302-0.206-0.495v-0.959c0-0.108-0.044-0.207-0.116-0.278s-0.17-0.116-0.279-0.116c-0.108 0-0.207 0.045-0.278 0.116s-0.116 0.17-0.116 0.278v1.644c0 0.193-0.079 0.368-0.206 0.496s-0.303 0.206-0.496 0.206-0.369-0.079-0.496-0.206c-0.127-0.127-0.206-0.303-0.206-0.496v-1.37c0-0.108-0.044-0.207-0.116-0.279s-0.17-0.116-0.279-0.116-0.207 0.044-0.278 0.116c-0.072 0.072-0.116 0.17-0.116 0.279v1.69c0 0.193-0.079 0.368-0.206 0.496s-0.302 0.206-0.496 0.206-0.368-0.079-0.496-0.206c-0.127-0.127-0.206-0.302-0.206-0.496v-1.69c0-0.108-0.044-0.207-0.116-0.279s-0.17-0.116-0.278-0.116c-0.108 0-0.207 0.044-0.279 0.116s-0.116 0.17-0.116 0.279v1.37c0 0.193-0.079 0.368-0.206 0.496s-0.302 0.206-0.496 0.206-0.368-0.079-0.496-0.206c-0.127-0.127-0.206-0.303-0.206-0.496v-1.644c0-0.108-0.045-0.207-0.116-0.278s-0.17-0.116-0.278-0.116c-0.108 0-0.207 0.045-0.278 0.116s-0.116 0.17-0.116 0.278v0.959c0 0.193-0.079 0.368-0.206 0.495s-0.303 0.206-0.496 0.206-0.368-0.079-0.496-0.206c-0.127-0.127-0.206-0.302-0.206-0.495v-1.479c0-0.228 0.093-0.434 0.243-0.584s0.357-0.243 0.584-0.243zM20.263 11.196h-8.517c-0.143 0-0.273 0.059-0.367 0.153s-0.153 0.224-0.153 0.367v1.479c0 0.108 0.044 0.207 0.116 0.278s0.17 0.116 0.278 0.116 0.207-0.045 0.278-0.116c0.072-0.072 0.116-0.17 0.116-0.278v-0.959c0-0.193 0.079-0.368 0.206-0.496s0.303-0.206 0.496-0.206c0.193 0 0.369 0.079 0.496 0.206s0.206 0.302 0.206 0.496v1.644c0 0.108 0.044 0.207 0.116 0.279s0.17 0.116 0.279 0.116c0.108 0 0.207-0.044 0.278-0.116s0.116-0.17 0.116-0.279v-1.37c0-0.193 0.079-0.368 0.206-0.496s0.302-0.206 0.496-0.206 0.368 0.079 0.496 0.206c0.127 0.127 0.206 0.302 0.206 0.496v1.69c0 0.108 0.044 0.207 0.116 0.278s0.17 0.116 0.278 0.116 0.207-0.044 0.278-0.116c0.072-0.072 0.116-0.17 0.116-0.278v-1.69c0-0.193 0.079-0.368 0.206-0.496s0.302-0.206 0.496-0.206 0.369 0.079 0.496 0.206c0.127 0.127 0.206 0.302 0.206 0.496v1.37c0 0.108 0.044 0.207 0.116 0.279s0.17 0.116 0.278 0.116c0.108 0 0.207-0.044 0.279-0.116s0.116-0.17 0.116-0.279v-1.644c0-0.193 0.079-0.368 0.206-0.496s0.302-0.206 0.496-0.206c0.193 0 0.369 0.079 0.496 0.206s0.206 0.302 0.206 0.496v0.959c0 0.108 0.045 0.207 0.116 0.278s0.17 0.116 0.278 0.116c0.108 0 0.207-0.045 0.279-0.116s0.116-0.17 0.116-0.278v-1.479c0-0.143-0.058-0.273-0.153-0.367s-0.224-0.153-0.367-0.153z"></path>
        <path d="M11.746 10.889h8.517c0.228 0 0.434 0.093 0.584 0.243s0.243 0.357 0.243 0.584v4.471h-10.171v-4.471c0-0.228 0.093-0.434 0.243-0.584s0.357-0.243 0.584-0.243zM20.263 11.196h-8.517c-0.143 0-0.273 0.059-0.367 0.153s-0.153 0.224-0.153 0.367v4.163h9.557v-4.163c0-0.143-0.058-0.273-0.153-0.367s-0.224-0.153-0.367-0.153z"></path>
        <path d="M10.292 15.88h11.425c0.291 0 0.555 0.119 0.747 0.31s0.31 0.456 0.31 0.747v1.983c0 0.244-0.1 0.467-0.261 0.628s-0.383 0.261-0.628 0.261c-0.244 0-0.467-0.1-0.628-0.261s-0.261-0.383-0.261-0.628v-1.286c0-0.16-0.066-0.305-0.171-0.411s-0.251-0.171-0.411-0.171c-0.16 0-0.305 0.066-0.411 0.171s-0.171 0.251-0.171 0.411v2.205c0 0.244-0.1 0.467-0.261 0.628s-0.383 0.261-0.628 0.261c-0.245 0-0.467-0.1-0.628-0.261s-0.261-0.383-0.261-0.628v-1.838c0-0.16-0.065-0.305-0.171-0.411s-0.251-0.171-0.411-0.171c-0.16 0-0.305 0.065-0.411 0.171s-0.171 0.251-0.171 0.411v2.266c0 0.245-0.1 0.467-0.261 0.628s-0.383 0.261-0.628 0.261-0.467-0.1-0.628-0.261c-0.161-0.161-0.261-0.383-0.261-0.628v-2.266c0-0.16-0.066-0.305-0.171-0.411s-0.251-0.171-0.411-0.171c-0.16 0-0.305 0.065-0.411 0.171s-0.171 0.251-0.171 0.411v1.838c0 0.244-0.1 0.467-0.261 0.628s-0.383 0.261-0.628 0.261c-0.245 0-0.467-0.1-0.628-0.261s-0.261-0.383-0.261-0.628v-2.205c0-0.16-0.065-0.305-0.171-0.411s-0.251-0.171-0.411-0.171c-0.16 0-0.305 0.066-0.411 0.171s-0.171 0.251-0.171 0.411v1.286c0 0.244-0.1 0.467-0.261 0.628s-0.383 0.261-0.628 0.261c-0.245 0-0.467-0.1-0.628-0.261s-0.261-0.383-0.261-0.628v-1.983c0-0.291 0.119-0.555 0.31-0.747s0.456-0.31 0.747-0.31zM21.717 16.187h-11.425c-0.206 0-0.394 0.084-0.53 0.22s-0.22 0.324-0.22 0.53v1.983c0 0.16 0.065 0.305 0.171 0.411s0.251 0.171 0.411 0.171 0.305-0.065 0.411-0.171c0.105-0.105 0.171-0.251 0.171-0.411v-1.286c0-0.244 0.1-0.467 0.261-0.628s0.383-0.261 0.628-0.261c0.245 0 0.467 0.1 0.628 0.261s0.261 0.383 0.261 0.628v2.205c0 0.16 0.065 0.305 0.171 0.411s0.251 0.171 0.411 0.171c0.16 0 0.305-0.065 0.411-0.171s0.171-0.251 0.171-0.411v-1.838c0-0.244 0.1-0.467 0.261-0.628s0.383-0.261 0.628-0.261c0.245 0 0.467 0.1 0.628 0.261s0.261 0.383 0.261 0.628v2.266c0 0.16 0.066 0.305 0.171 0.411s0.251 0.171 0.411 0.171 0.305-0.065 0.411-0.171c0.105-0.105 0.171-0.251 0.171-0.411v-2.266c0-0.244 0.1-0.467 0.261-0.628s0.383-0.261 0.628-0.261c0.245 0 0.467 0.1 0.628 0.261s0.261 0.383 0.261 0.628v1.838c0 0.16 0.065 0.305 0.171 0.411s0.251 0.171 0.411 0.171c0.16 0 0.305-0.065 0.411-0.171s0.171-0.251 0.171-0.411v-2.205c0-0.244 0.1-0.467 0.261-0.628s0.383-0.261 0.628-0.261 0.467 0.1 0.628 0.261c0.161 0.161 0.261 0.383 0.261 0.628v1.286c0 0.16 0.066 0.305 0.171 0.411s0.251 0.171 0.411 0.171c0.16 0 0.305-0.065 0.411-0.171s0.171-0.251 0.171-0.411v-1.983c0-0.206-0.084-0.394-0.22-0.53s-0.323-0.22-0.53-0.22z"></path>
        <path d="M10.292 15.88h11.425c0.291 0 0.555 0.119 0.747 0.31s0.31 0.456 0.31 0.747v6.126h-13.539v-6.126c0-0.291 0.119-0.555 0.31-0.747s0.456-0.31 0.747-0.31zM21.717 16.187h-11.425c-0.206 0-0.394 0.084-0.53 0.22s-0.22 0.324-0.22 0.53v5.819h12.924v-5.819c0-0.206-0.084-0.394-0.22-0.53s-0.323-0.22-0.53-0.22z"></path>
        <path d="M8.757 22.756h14.495c0.177 0 0.338 0.072 0.455 0.189s0.189 0.277 0.189 0.455c0 0.177-0.072 0.338-0.189 0.455s-0.278 0.189-0.455 0.189h-14.495c-0.177 0-0.338-0.072-0.455-0.189s-0.189-0.278-0.189-0.455c0-0.177 0.072-0.338 0.189-0.455s0.277-0.189 0.455-0.189zM23.252 23.063h-14.495c-0.092 0-0.176 0.038-0.238 0.099s-0.099 0.145-0.099 0.238c0 0.092 0.038 0.176 0.099 0.238s0.145 0.099 0.238 0.099h14.495c0.092 0 0.177-0.038 0.238-0.099s0.099-0.145 0.099-0.238c0-0.092-0.038-0.177-0.099-0.238s-0.145-0.099-0.238-0.099z"></path>
        <path d="M16.28 10.889v-2.268c0-0.027-0.011-0.051-0.029-0.069s-0.042-0.029-0.069-0.029h-0.354c-0.027 0-0.051 0.011-0.069 0.029s-0.029 0.042-0.029 0.069v2.268zM16.587 8.621v2.575h-1.165v-2.575c0-0.112 0.046-0.213 0.119-0.286s0.175-0.119 0.286-0.119h0.354c0.112 0 0.213 0.046 0.286 0.119s0.119 0.175 0.119 0.286z"></path>
        <path d="M16.527 9.009l-0.857 0.67-0.188-0.241 0.857-0.67 0.188 0.241z"></path>
        <path d="M16.527 9.952l-0.857 0.67-0.188-0.241 0.857-0.67 0.188 0.241z"></path>
        <path d="M15.973 8.519c-0.144-0.031-0.251-0.105-0.325-0.206-0.058-0.080-0.093-0.174-0.108-0.275-0.013-0.095-0.009-0.196 0.013-0.297 0.046-0.217 0.173-0.434 0.361-0.572l0.090-0.065 0.090 0.065c0.188 0.137 0.315 0.355 0.361 0.572 0.021 0.1 0.026 0.202 0.013 0.297-0.014 0.101-0.050 0.196-0.108 0.275-0.074 0.101-0.181 0.176-0.325 0.206l-0.032 0.007zM15.895 8.133c0.025 0.034 0.061 0.062 0.109 0.078 0.048-0.016 0.084-0.043 0.109-0.078 0.027-0.037 0.044-0.084 0.051-0.138 0.008-0.059 0.005-0.125-0.009-0.191-0.024-0.11-0.076-0.219-0.151-0.305-0.076 0.086-0.128 0.195-0.152 0.305-0.014 0.066-0.018 0.132-0.009 0.191 0.008 0.053 0.024 0.101 0.051 0.138z"></path>
        <path d="M11.054 23.736h14.495c0.177 0 0.338 0.072 0.455 0.189s0.189 0.278 0.189 0.455-0.072 0.338-0.189 0.455c-0.117 0.117-0.277 0.189-0.455 0.189h-19.089c-0.177 0-0.338-0.072-0.455-0.189s-0.189-0.277-0.189-0.455 0.072-0.338 0.189-0.455c0.117-0.117 0.277-0.189 0.455-0.189zM20.955 24.043h-14.495c-0.092 0-0.176 0.038-0.237 0.099s-0.099 0.145-0.099 0.238 0.038 0.176 0.099 0.238c0.061 0.061 0.145 0.099 0.237 0.099h19.089c0.092 0 0.176-0.038 0.237-0.099s0.099-0.145 0.099-0.238-0.038-0.177-0.099-0.238c-0.061-0.061-0.145-0.099-0.237-0.099h-4.594z"></path>
    </symbol>
    <symbol id="icon-bank" viewBox="0 0 32 32">
        <path d="M15.592 8.68c-0.453 0-0.864 0.184-1.161 0.481s-0.481 0.707-0.481 1.161c0 0.453 0.184 0.864 0.481 1.161s0.707 0.481 1.161 0.481c0.453 0 0.864-0.184 1.161-0.481s0.481-0.707 0.481-1.161c0-0.453-0.184-0.864-0.481-1.161s-0.707-0.481-1.161-0.481zM14.052 8.781c0.394-0.394 0.938-0.638 1.539-0.638s1.145 0.244 1.539 0.638c0.394 0.394 0.638 0.938 0.638 1.539s-0.244 1.145-0.638 1.539c-0.394 0.394-0.938 0.638-1.539 0.638s-1.146-0.244-1.539-0.638-0.638-0.938-0.638-1.539c0-0.601 0.244-1.146 0.638-1.539z"></path>
        <path d="M13.214 22.869l-0.068 0.249h-0.001c-0.071 0.26-0.252 0.468-0.486 0.595-0.226 0.122-0.503 0.168-0.778 0.11l-1.153-0.242c-0.029-0.006-0.051-0.011-0.066-0.015-0.252-0.069-0.458-0.219-0.591-0.411-0.138-0.2-0.196-0.444-0.144-0.691 0.005-0.024 0.009-0.041 0.012-0.051l0.274-1.006c-0.303-0.248-0.574-0.517-0.807-0.804-0.229-0.282-0.423-0.58-0.576-0.891h-0.065c-0.284 0-0.544-0.104-0.734-0.271-0.2-0.176-0.324-0.42-0.324-0.691v-1.239c0-0.271 0.124-0.515 0.324-0.691 0.172-0.151 0.402-0.251 0.655-0.268 0.139-0.359 0.33-0.701 0.566-1.023 0.232-0.317 0.51-0.614 0.826-0.889l-0.664-0.99 0.256-0.14c0.463-0.254 0.938-0.377 1.398-0.407 0.504-0.034 0.989 0.044 1.419 0.181 0.464-0.161 0.955-0.287 1.464-0.373 0.529-0.089 1.079-0.137 1.642-0.137 1.964 0 3.746 0.571 5.040 1.493 1.32 0.941 2.136 2.249 2.136 3.7 0 0.679-0.179 1.327-0.506 1.922-0.308 0.561-0.748 1.074-1.291 1.519l0.274 1.006c0.003 0.010 0.007 0.028 0.012 0.051 0.052 0.247-0.006 0.491-0.144 0.691-0.132 0.192-0.338 0.342-0.591 0.411-0.015 0.004-0.037 0.009-0.066 0.015l-1.153 0.242c-0.275 0.058-0.552 0.011-0.778-0.11-0.235-0.126-0.416-0.335-0.486-0.595h-0.001l-0.068-0.249c-0.332 0.084-0.677 0.151-1.033 0.2-0.439 0.060-0.889 0.091-1.345 0.091s-0.906-0.032-1.344-0.091c-0.356-0.049-0.701-0.116-1.033-0.2zM12.63 22.978l-0.001-0 0.209-0.768 0.26 0.074c0.392 0.112 0.8 0.198 1.22 0.256 0.409 0.056 0.834 0.085 1.273 0.085s0.865-0.029 1.273-0.085c0.419-0.057 0.827-0.144 1.22-0.256l0.26-0.074 0.209 0.768-0.001 0c0.030 0.111 0.114 0.204 0.225 0.264 0.12 0.065 0.268 0.089 0.416 0.058l1.153-0.242c0.005-0.001 0.017-0.004 0.035-0.009 0.128-0.035 0.229-0.107 0.291-0.197 0.057-0.082 0.081-0.181 0.060-0.278l-0.372-1.367 0.142-0.11c0.551-0.425 0.991-0.921 1.29-1.466 0.283-0.516 0.439-1.078 0.439-1.664 0-1.269-0.73-2.423-1.911-3.265-1.207-0.86-2.879-1.392-4.73-1.392-0.537 0-1.057 0.044-1.554 0.128-0.514 0.087-1.003 0.215-1.46 0.379l-0.089 0.032-0.087-0.030c-0.391-0.134-0.838-0.213-1.302-0.182-0.299 0.020-0.606 0.086-0.91 0.215l0.601 0.895-0.192 0.154c-0.357 0.285-0.666 0.603-0.917 0.946-0.244 0.332-0.432 0.686-0.556 1.057l-0.061 0.183h-0.3c-0.151 0-0.286 0.052-0.383 0.137-0.086 0.076-0.14 0.178-0.14 0.289v1.239c0 0.111 0.054 0.213 0.14 0.289 0.096 0.084 0.231 0.137 0.383 0.137h0.41l0.071 0.16c0.144 0.327 0.338 0.639 0.575 0.93 0.243 0.299 0.532 0.577 0.861 0.83l0.142 0.11-0.372 1.367c-0.021 0.098 0.004 0.196 0.060 0.278 0.062 0.090 0.164 0.162 0.291 0.197 0.018 0.005 0.030 0.008 0.035 0.009l1.153 0.242c0.148 0.031 0.296 0.006 0.416-0.058 0.111-0.060 0.194-0.152 0.225-0.264z"></path>
        <path d="M21.944 16.533c-0.119-0.087-0.145-0.255-0.057-0.374s0.255-0.145 0.373-0.057c0.005 0.004 0.009 0.006 0.012 0.008 0.026-0.011 0.055-0.068 0.084-0.126 0.083-0.164 0.168-0.33 0.417-0.41 0.148-0.048 0.3-0.032 0.435 0.033 0.119 0.058 0.223 0.154 0.297 0.279 0.011-0.030 0.021-0.059 0.032-0.089 0.078-0.228 0.171-0.501 0.413-0.584 0.139-0.048 0.291 0.026 0.339 0.165s-0.026 0.291-0.165 0.339c-0.007 0.003-0.040 0.136-0.080 0.252-0.018 0.054-0.036 0.105-0.049 0.139-0.051 0.129-0.141 0.228-0.247 0.287-0.063 0.035-0.131 0.055-0.202 0.061-0.072 0.006-0.145-0.005-0.215-0.033-0.109-0.043-0.209-0.127-0.281-0.257-0.020-0.037-0.046-0.063-0.073-0.076-0.015-0.007-0.029-0.010-0.039-0.006-0.037 0.012-0.070 0.078-0.103 0.142-0.089 0.174-0.176 0.346-0.447 0.408-0.074 0.017-0.153 0.018-0.236-0.002-0.070-0.017-0.139-0.048-0.207-0.098z"></path>
        <path d="M11.044 16.003c-0.176 0-0.32 0.143-0.32 0.319s0.143 0.32 0.32 0.32 0.32-0.143 0.32-0.32c0-0.176-0.143-0.319-0.32-0.319z"></path>
        <path d="M13.453 14.92h4.278c0.086 0 0.156 0.070 0.156 0.156v0.093c0 0.086-0.070 0.156-0.156 0.156h-4.278c-0.086 0-0.156-0.070-0.156-0.156v-0.093c0-0.086 0.070-0.156 0.156-0.156z"></path>
        <path d="M15.5 10.925v-0.538c-0.167-0.048-0.29-0.12-0.367-0.217s-0.117-0.215-0.117-0.354c0-0.14 0.044-0.258 0.133-0.354s0.205-0.151 0.352-0.165v-0.126h0.187v0.126c0.137 0.016 0.246 0.063 0.327 0.14s0.133 0.18 0.155 0.308l-0.327 0.042c-0.020-0.101-0.072-0.169-0.155-0.205v0.502c0.207 0.055 0.348 0.128 0.422 0.216s0.112 0.202 0.112 0.341c0 0.155-0.047 0.285-0.141 0.391s-0.225 0.172-0.393 0.198v0.24h-0.187v-0.237c-0.147-0.018-0.267-0.072-0.36-0.164s-0.151-0.222-0.177-0.389l0.334-0.039c0.014 0.068 0.040 0.127 0.077 0.177s0.079 0.085 0.125 0.107zM15.5 9.577c-0.050 0.018-0.090 0.047-0.119 0.089s-0.044 0.086-0.044 0.136c0 0.045 0.013 0.087 0.040 0.126s0.068 0.070 0.123 0.094zM15.687 10.946c0.065-0.014 0.117-0.045 0.158-0.092s0.061-0.103 0.061-0.168c0-0.057-0.017-0.107-0.051-0.148s-0.090-0.073-0.167-0.096v0.503z"></path>
    </symbol>
    <symbol id="icon-medical" viewBox="0 0 32 32">
        <path d="M12.842 9.012c-0.213 0.018-0.652 0.107-0.817 0.162-0.037 0.013-0.112 0.035-0.167 0.052-0.2 0.057-0.712 0.33-0.905 0.485-0.083 0.067-0.385 0.368-0.447 0.448-0.035 0.045-0.073 0.090-0.083 0.1-0.070 0.062-0.31 0.522-0.37 0.708-0.047 0.142-0.097 0.397-0.122 0.625-0.035 0.328-0.005 0.823 0.087 1.4 0.020 0.127 0.167 0.72 0.208 0.842 0.015 0.042 0.033 0.112 0.042 0.158 0.017 0.087 0.205 0.697 0.352 1.133 0.047 0.137 0.11 0.332 0.142 0.433 0.032 0.1 0.108 0.345 0.172 0.542 0.062 0.197 0.145 0.47 0.185 0.608 0.038 0.137 0.092 0.325 0.117 0.417 0.027 0.092 0.060 0.218 0.075 0.283 0.015 0.063 0.043 0.197 0.067 0.293 0.14 0.625 0.2 1.068 0.223 1.665 0.030 0.763 0.092 1.247 0.232 1.822 0.070 0.282 0.115 0.42 0.2 0.623 0.028 0.067 0.073 0.172 0.098 0.233 0.063 0.153 0.278 0.473 0.4 0.598 0.16 0.163 0.367 0.29 0.545 0.332 0.118 0.028 0.405 0.032 0.528 0.007 0.287-0.058 0.563-0.223 0.725-0.435 0.083-0.107 0.195-0.29 0.213-0.347 0.007-0.023 0.033-0.087 0.058-0.142 0.048-0.103 0.173-0.478 0.19-0.567 0.005-0.028 0.050-0.268 0.102-0.533 0.157-0.813 0.172-0.897 0.183-0.978 0.018-0.133 0.118-0.512 0.21-0.782 0.175-0.523 0.43-0.928 0.637-1.007 0.103-0.040 0.168-0.015 0.305 0.112 0.177 0.167 0.35 0.483 0.488 0.895 0.092 0.27 0.192 0.647 0.21 0.782 0.012 0.082 0.027 0.165 0.183 0.978 0.052 0.265 0.097 0.505 0.102 0.533 0.017 0.088 0.142 0.463 0.19 0.567 0.025 0.055 0.052 0.118 0.058 0.142 0.018 0.057 0.13 0.24 0.213 0.347 0.162 0.212 0.438 0.377 0.725 0.435 0.123 0.025 0.41 0.022 0.528-0.007 0.177-0.040 0.377-0.162 0.54-0.327 0.105-0.105 0.333-0.433 0.385-0.555 0.21-0.492 0.237-0.57 0.332-0.96 0.132-0.535 0.177-0.943 0.218-1.917 0.022-0.53 0.078-0.88 0.29-1.808 0.053-0.23 0.238-0.875 0.378-1.308 0.062-0.197 0.14-0.442 0.17-0.542 0.032-0.102 0.095-0.297 0.142-0.433 0.147-0.437 0.335-1.047 0.352-1.133 0.008-0.047 0.027-0.117 0.042-0.158 0.042-0.122 0.188-0.715 0.208-0.842 0.092-0.577 0.122-1.072 0.087-1.4-0.025-0.228-0.075-0.483-0.122-0.625-0.060-0.187-0.3-0.647-0.37-0.708-0.010-0.010-0.048-0.055-0.083-0.1-0.073-0.095-0.387-0.408-0.407-0.408-0.007 0-0.025-0.015-0.040-0.032-0.072-0.083-0.492-0.327-0.765-0.443-0.163-0.070-0.557-0.175-0.848-0.227-0.138-0.025-0.295-0.037-0.567-0.043-0.443-0.010-0.688 0.015-1.047 0.107-0.125 0.032-0.275 0.068-0.33 0.082-0.095 0.022-0.318 0.098-0.64 0.223-0.068 0.027-0.195 0.072-0.278 0.103-0.085 0.030-0.155 0.062-0.155 0.072 0 0.047 0.745 0.32 1.020 0.375 0.21 0.042 0.305 0.042 0.445 0 0.562-0.167 1.155-0.17 1.768-0.007 0.242 0.063 0.405 0.133 0.642 0.272 0.187 0.11 0.243 0.153 0.408 0.318s0.207 0.218 0.298 0.382c0.183 0.327 0.233 0.54 0.235 1.002 0 0.468-0.062 0.893-0.21 1.433-0.033 0.123-0.070 0.268-0.082 0.32s-0.038 0.145-0.057 0.208c-0.020 0.062-0.078 0.245-0.128 0.405-0.052 0.16-0.152 0.472-0.223 0.692-0.24 0.737-0.365 1.133-0.39 1.23-0.015 0.053-0.058 0.212-0.1 0.35-0.123 0.418-0.177 0.615-0.177 0.648 0 0.018-0.015 0.093-0.035 0.168-0.053 0.21-0.158 0.732-0.195 0.97-0.037 0.23-0.055 0.46-0.095 1.142-0.040 0.673-0.072 0.953-0.153 1.308-0.023 0.1-0.047 0.202-0.050 0.225-0.012 0.060-0.105 0.347-0.138 0.425-0.17 0.388-0.22 0.477-0.342 0.598-0.093 0.093-0.143 0.115-0.233 0.1-0.233-0.038-0.383-0.227-0.525-0.657-0.070-0.212-0.068-0.207-0.175-0.775-0.042-0.22-0.102-0.538-0.135-0.708-0.080-0.423-0.163-0.768-0.25-1.025-0.042-0.12-0.082-0.243-0.092-0.275s-0.082-0.187-0.158-0.342c-0.257-0.517-0.563-0.84-0.93-0.98-0.127-0.048-0.148-0.052-0.36-0.052-0.203 0-0.237 0.003-0.35 0.045-0.363 0.133-0.683 0.468-0.94 0.987-0.077 0.155-0.15 0.313-0.162 0.35s-0.042 0.127-0.067 0.2c-0.063 0.182-0.158 0.52-0.19 0.673-0.037 0.187-0.13 0.672-0.217 1.127-0.107 0.568-0.105 0.563-0.175 0.775-0.142 0.43-0.292 0.618-0.525 0.657-0.090 0.015-0.14-0.007-0.233-0.1-0.122-0.122-0.172-0.21-0.342-0.598-0.082-0.187-0.2-0.65-0.257-1-0.050-0.302-0.085-0.733-0.143-1.708-0.022-0.368-0.082-0.732-0.202-1.232-0.035-0.15-0.065-0.287-0.065-0.303 0-0.018-0.057-0.228-0.127-0.47-0.070-0.24-0.137-0.478-0.15-0.528-0.025-0.092-0.148-0.482-0.39-1.225-0.072-0.22-0.172-0.532-0.223-0.692-0.050-0.16-0.108-0.343-0.128-0.405-0.018-0.063-0.045-0.157-0.057-0.208s-0.052-0.208-0.088-0.345c-0.145-0.538-0.203-0.938-0.203-1.408 0.002-0.423 0.050-0.66 0.187-0.915 0.123-0.23 0.182-0.308 0.362-0.485 0.275-0.27 0.627-0.465 1.035-0.573 0.592-0.157 1.13-0.162 1.683-0.015 0.087 0.023 0.19 0.048 0.227 0.057 0.038 0.007 0.192 0.060 0.342 0.117s0.315 0.118 0.365 0.135c0.077 0.027 0.54 0.248 0.908 0.435 0.297 0.148 0.822 0.34 1.152 0.418 0.37 0.088 0.615 0.115 0.915 0.103 0.362-0.013 0.783-0.11 0.922-0.21 0.073-0.053 0.15-0.185 0.163-0.287 0.020-0.148-0.070-0.328-0.205-0.408-0.073-0.042-0.093-0.047-0.23-0.045-0.082 0.002-0.172 0.012-0.2 0.023-0.183 0.075-0.59 0.103-0.858 0.062-0.35-0.057-0.627-0.133-0.872-0.243-0.168-0.075-0.233-0.102-0.248-0.102-0.008 0-0.25-0.117-0.537-0.257-0.287-0.142-0.543-0.263-0.57-0.27s-0.1-0.032-0.165-0.058c-0.24-0.097-0.532-0.2-0.632-0.222-0.055-0.013-0.203-0.050-0.328-0.082-0.325-0.083-0.58-0.112-0.957-0.108-0.175 0.002-0.347 0.005-0.383 0.008z"></path>
    </symbol>
    <symbol id="icon-done" viewBox="0 0 32 32">
        <path d="M11.467 30l-2.533-4.267-4.8-1.067 0.467-4.933-3.267-3.733 3.267-3.733-0.467-4.933 4.8-1.067 2.533-4.267 4.533 1.933 4.533-1.933 2.533 4.267 4.8 1.067-0.467 4.933 3.267 3.733-3.267 3.733 0.467 4.933-4.8 1.067-2.533 4.267-4.533-1.933-4.533 1.933zM12.6 26.6l3.4-1.467 3.467 1.467 1.867-3.2 3.667-0.867-0.333-3.733 2.467-2.8-2.467-2.867 0.333-3.733-3.667-0.8-1.933-3.2-3.4 1.467-3.467-1.467-1.867 3.2-3.667 0.8 0.333 3.733-2.467 2.867 2.467 2.8-0.333 3.8 3.667 0.8 1.933 3.2zM14.6 20.733l7.533-7.533-1.867-1.933-5.667 5.667-2.867-2.8-1.867 1.867 4.733 4.733z"></path>
    </symbol>
</svg>
