<svg xmlns="http://www.w3.org/2000/svg" version="1.1" xmlns:xlink="http://www.w3.org/1999/xlink" width="177" height="77"><svg width="177" height="77" viewBox="0 0 177 77" fill="none" xmlns="http://www.w3.org/2000/svg">
<circle cx="38.5" cy="38.5" r="38.5" fill="#0C99FF"></circle>
<path d="M42.8 56.35C40.2333 56.35 37.9333 55.9333 35.9 55.1C33.8667 54.2667 32.2333 53.0333 31 51.4C29.8 49.7667 29.1667 47.8 29.1 45.5H38.2C38.3333 46.8 38.7833 47.8 39.55 48.5C40.3167 49.1667 41.3167 49.5 42.55 49.5C43.8167 49.5 44.8167 49.2167 45.55 48.65C46.2833 48.05 46.65 47.2333 46.65 46.2C46.65 45.3333 46.35 44.6167 45.75 44.05C45.1833 43.4833 44.4667 43.0167 43.6 42.65C42.7667 42.2833 41.5667 41.8667 40 41.4C37.7333 40.7 35.8833 40 34.45 39.3C33.0167 38.6 31.7833 37.5667 30.75 36.2C29.7167 34.8333 29.2 33.05 29.2 30.85C29.2 27.5833 30.3833 25.0333 32.75 23.2C35.1167 21.3333 38.2 20.4 42 20.4C45.8667 20.4 48.9833 21.3333 51.35 23.2C53.7167 25.0333 54.9833 27.6 55.15 30.9H45.9C45.8333 29.7667 45.4167 28.8833 44.65 28.25C43.8833 27.5833 42.9 27.25 41.7 27.25C40.6667 27.25 39.8333 27.5333 39.2 28.1C38.5667 28.6333 38.25 29.4167 38.25 30.45C38.25 31.5833 38.7833 32.4667 39.85 33.1C40.9167 33.7333 42.5833 34.4167 44.85 35.15C47.1167 35.9167 48.95 36.65 50.35 37.35C51.7833 38.05 53.0167 39.0667 54.05 40.4C55.0833 41.7333 55.6 43.45 55.6 45.55C55.6 47.55 55.0833 49.3667 54.05 51C53.05 52.6333 51.5833 53.9333 49.65 54.9C47.7167 55.8667 45.4333 56.35 42.8 56.35ZM81.1117 20.9V27.75H71.8117V56H63.2617V27.75H53.9617V20.9H81.1117ZM88.8027 20.9V41.9C88.8027 44 89.3194 45.6167 90.3527 46.75C91.3861 47.8833 92.9027 48.45 94.9027 48.45C96.9027 48.45 98.4361 47.8833 99.5027 46.75C100.569 45.6167 101.103 44 101.103 41.9V20.9H109.653V41.85C109.653 44.9833 108.986 47.6333 107.653 49.8C106.319 51.9667 104.519 53.6 102.253 54.7C100.019 55.8 97.5194 56.35 94.7527 56.35C91.9861 56.35 89.5027 55.8167 87.3027 54.75C85.1361 53.65 83.4194 52.0167 82.1527 49.85C80.8861 47.65 80.2527 44.9833 80.2527 41.85V20.9H88.8027ZM123.807 20.9C127.507 20.9 130.74 21.6333 133.507 23.1C136.273 24.5667 138.407 26.6333 139.907 29.3C141.44 31.9333 142.207 34.9833 142.207 38.45C142.207 41.8833 141.44 44.9333 139.907 47.6C138.407 50.2667 136.257 52.3333 133.457 53.8C130.69 55.2667 127.473 56 123.807 56H110.657V20.9H123.807ZM123.257 48.6C126.49 48.6 129.007 47.7167 130.807 45.95C132.607 44.1833 133.507 41.6833 133.507 38.45C133.507 35.2167 132.607 32.7 130.807 30.9C129.007 29.1 126.49 28.2 123.257 28.2H119.207V48.6H123.257ZM172.085 20.9L159.935 44.4V56H151.385V44.4L139.235 20.9H148.935L155.735 35.6L162.485 20.9H172.085Z" fill="#FE9803"></path>
</svg><style>@media (prefers-color-scheme: light) { :root { filter: none; } }
@media (prefers-color-scheme: dark) { :root { filter: none; } }
</style></svg>